<svg width="25" height="33" viewBox="0 0 25 33" fill="none" xmlns="http://www.w3.org/2000/svg">
  <path
    d="M15.3098 16.0806C15.3098 17.6585 14.0306 18.9377 12.4526 18.9377C10.8747 18.9377 9.59549 17.6585 9.59549 16.0806C9.59549 14.5026 10.8747 13.2234 12.4526 13.2234C14.0306 13.2234 15.3098 14.5026 15.3098 16.0806Z"
    fill="black" />
  <path fill-rule="evenodd" clip-rule="evenodd"
    d="M12.4526 28.0806C18.498 28.0806 23.4993 23.6102 24.3311 17.7949H17.3029C16.5969 19.7923 14.6919 21.2234 12.4526 21.2234C10.2134 21.2234 8.30842 19.7923 7.60242 17.7949H0.57416C1.40598 23.6102 6.40726 28.0806 12.4526 28.0806ZM7.60242 14.3663H0.57416C1.40598 8.55092 6.40726 4.08057 12.4526 4.08057C18.498 4.08057 23.4993 8.55092 24.3311 14.3663H17.3029C16.5969 12.3688 14.6919 10.9377 12.4526 10.9377C10.2134 10.9377 8.30842 12.3688 7.60242 14.3663ZM15.3098 16.0806C15.3098 17.6585 14.0306 18.9377 12.4526 18.9377C10.8747 18.9377 9.59549 17.6585 9.59549 16.0806C9.59549 14.5026 10.8747 13.2234 12.4526 13.2234C14.0306 13.2234 15.3098 14.5026 15.3098 16.0806Z"
    fill="black" />
</svg>