<svg width="212" height="36" viewBox="0 0 212 36" fill="none" xmlns="http://www.w3.org/2000/svg">
<path d="M25.1717 16.4C25.1717 18.1867 24.7584 19.8133 23.9317 21.28C23.1051 22.72 21.8784 23.8667 20.2517 24.72C18.6517 25.5733 16.7051 26 14.4117 26H10.8917V35H2.01172V6.68H14.4117C17.8784 6.68 20.5317 7.56 22.3717 9.32C24.2384 11.08 25.1717 13.44 25.1717 16.4ZM13.4117 19C15.2517 19 16.1717 18.1333 16.1717 16.4C16.1717 14.6667 15.2517 13.8 13.4117 13.8H10.8917V19H13.4117Z" fill="black"/>
<path d="M75.9244 35L70.3644 26V35H61.4844V5.4H70.3644V20.88L76.0044 12.44H86.3244L77.8844 23.8L86.5244 35H75.9244Z" fill="black"/>
<path d="M116.016 23.52C116.016 24.1333 115.976 24.72 115.896 25.28H101.616C101.749 27.2267 102.562 28.2 104.056 28.2C105.016 28.2 105.709 27.76 106.136 26.88H115.536C115.216 28.48 114.536 29.92 113.496 31.2C112.482 32.4533 111.189 33.4533 109.616 34.2C108.069 34.92 106.362 35.28 104.496 35.28C102.256 35.28 100.256 34.8133 98.4958 33.88C96.7624 32.9467 95.4024 31.6133 94.4158 29.88C93.4558 28.12 92.9758 26.0667 92.9758 23.72C92.9758 21.3733 93.4558 19.3333 94.4158 17.6C95.4024 15.84 96.7624 14.4933 98.4958 13.56C100.256 12.6267 102.256 12.16 104.496 12.16C106.736 12.16 108.722 12.6267 110.456 13.56C112.216 14.4667 113.576 15.7733 114.536 17.48C115.522 19.1867 116.016 21.2 116.016 23.52ZM107.016 21.4C107.016 20.6533 106.776 20.0933 106.296 19.72C105.816 19.32 105.216 19.12 104.496 19.12C102.922 19.12 102.002 19.88 101.736 21.4H107.016ZM109.616 6.88L99.2558 10.64V4.72L109.616 0.319998V6.88Z" fill="black"/>
<path d="M123.206 23.72C123.206 21.3467 123.606 19.2933 124.406 17.56C125.233 15.8 126.353 14.4667 127.766 13.56C129.18 12.6267 130.766 12.16 132.526 12.16C133.993 12.16 135.246 12.4667 136.286 13.08C137.353 13.6667 138.166 14.48 138.726 15.52V5.4H147.606V35H138.726V31.92C138.166 32.96 137.353 33.7867 136.286 34.4C135.246 34.9867 133.993 35.28 132.526 35.28C130.766 35.28 129.18 34.8267 127.766 33.92C126.353 32.9867 125.233 31.6533 124.406 29.92C123.606 28.16 123.206 26.0933 123.206 23.72ZM138.766 23.72C138.766 22.52 138.46 21.5867 137.846 20.92C137.233 20.2533 136.446 19.92 135.486 19.92C134.526 19.92 133.74 20.2533 133.126 20.92C132.513 21.5867 132.206 22.52 132.206 23.72C132.206 24.92 132.513 25.8533 133.126 26.52C133.74 27.1867 134.526 27.52 135.486 27.52C136.446 27.52 137.233 27.1867 137.846 26.52C138.46 25.8533 138.766 24.92 138.766 23.72Z" fill="black"/>
<path d="M179.016 23.52C179.016 24.1333 178.976 24.72 178.896 25.28H164.616C164.749 27.2267 165.562 28.2 167.056 28.2C168.016 28.2 168.709 27.76 169.136 26.88H178.536C178.216 28.48 177.536 29.92 176.496 31.2C175.482 32.4533 174.189 33.4533 172.616 34.2C171.069 34.92 169.362 35.28 167.496 35.28C165.256 35.28 163.256 34.8133 161.496 33.88C159.762 32.9467 158.402 31.6133 157.416 29.88C156.456 28.12 155.976 26.0667 155.976 23.72C155.976 21.3733 156.456 19.3333 157.416 17.6C158.402 15.84 159.762 14.4933 161.496 13.56C163.256 12.6267 165.256 12.16 167.496 12.16C169.736 12.16 171.722 12.6267 173.456 13.56C175.216 14.4667 176.576 15.7733 177.536 17.48C178.522 19.1867 179.016 21.2 179.016 23.52ZM170.016 21.4C170.016 20.6533 169.776 20.0933 169.296 19.72C168.816 19.32 168.216 19.12 167.496 19.12C165.922 19.12 165.002 19.88 164.736 21.4H170.016Z" fill="black"/>
<path d="M201.941 35L198.141 29.92L195.301 35H185.541L193.101 23.12L185.141 12.44H195.061L198.861 17.56L201.741 12.44H211.501L203.701 24.04L211.861 35H201.941Z" fill="black"/>
<path d="M54 23.5C54 20.45 52.7884 17.5249 50.6317 15.3683C48.4751 13.2116 45.55 12 42.5 12C39.45 12 36.5249 13.2116 34.3683 15.3683C32.2116 17.5249 31 20.45 31 23.5L42.5 23.5H54Z" fill="#FF0000" stroke="black" stroke-width="2"/>
<path d="M31 23.5C31 26.55 32.2116 29.4751 34.3683 31.6317C36.5249 33.7884 39.45 35 42.5 35C45.55 35 48.4751 33.7884 50.6317 31.6317C52.7884 29.4751 54 26.55 54 23.5L42.5 23.5L31 23.5Z" fill="white" stroke="black" stroke-width="2"/>
<circle cx="42.4998" cy="23.5" r="3.45" fill="white" stroke="black" stroke-width="2"/>
</svg>
