<svg width="25" height="25" viewBox="0 0 25 25" fill="none" xmlns="http://www.w3.org/2000/svg">
<path d="M24 12.5C24 9.45001 22.7884 6.52494 20.6317 4.36827C18.4751 2.2116 15.55 1 12.5 1C9.45001 1 6.52494 2.2116 4.36827 4.36827C2.2116 6.52494 1 9.45001 1 12.5L12.5 12.5H24Z" fill="#FF0000" stroke="black" stroke-width="2"/>
<path d="M1 12.5C1 15.55 2.2116 18.4751 4.36827 20.6317C6.52494 22.7884 9.45001 24 12.5 24C15.55 24 18.4751 22.7884 20.6317 20.6317C22.7884 18.4751 24 15.55 24 12.5L12.5 12.5L1 12.5Z" fill="white" stroke="black" stroke-width="2"/>
<circle cx="12.4998" cy="12.5" r="3.45" fill="white" stroke="black" stroke-width="2"/>
</svg>
